{
	"asset":{
		"generator":"Khronos glTF Blender I/O v4.2.69",
		"version":"2.0"
	},
	"scene":0,
	"scenes":[
		{
			"name":"Scene",
			"nodes":[
				0,
				1
			]
		}
	],
	"nodes":[
		{
			"name":"Noom Lake Mirror 4.001"
		},
		{
			"mesh":0,
			"name":"Sorento Sculpture"
		}
	],
	"materials":[
		{
			"doubleSided":true,
			"name":"GLASS"
		}
	],
	"meshes":[
		{
			"name":"Cube.004",
			"primitives":[
				{
					"attributes":{
						"POSITION":0,
						"NORMAL":1,
						"TEXCOORD_0":2
					},
					"indices":3,
					"material":0
				}
			]
		}
	],
	"accessors":[
		{
			"bufferView":0,
			"componentType":5126,
			"count":3471,
			"max":[
				0.11193177849054337,
				0.3548908531665802,
				0.09244322776794434
			],
			"min":[
				-0.07310547679662704,
				-9.628641419112682e-05,
				-0.09468632191419601
			],
			"type":"VEC3"
		},
		{
			"bufferView":1,
			"componentType":5126,
			"count":3471,
			"type":"VEC3"
		},
		{
			"bufferView":2,
			"componentType":5126,
			"count":3471,
			"type":"VEC2"
		},
		{
			"bufferView":3,
			"componentType":5123,
			"count":18564,
			"type":"SCALAR"
		}
	],
	"bufferViews":[
		{
			"buffer":0,
			"byteLength":41652,
			"byteOffset":0,
			"target":34962
		},
		{
			"buffer":0,
			"byteLength":41652,
			"byteOffset":41652,
			"target":34962
		},
		{
			"buffer":0,
			"byteLength":27768,
			"byteOffset":83304,
			"target":34962
		},
		{
			"buffer":0,
			"byteLength":37128,
			"byteOffset":111072,
			"target":34963
		}
	],
	"buffers":[
		{
			"byteLength":148200,
			"uri":"untitled.bin"
		}
	]
}
